<svg id="Capa_1" enable-background="new 0 0 512 512" height="512" viewBox="0 0 512 512" width="512" xmlns="http://www.w3.org/2000/svg"><g><g><path d="m376 292h-60c-8.284 0-15-6.716-15-15s6.716-15 15-15h60c8.284 0 15 6.716 15 15s-6.716 15-15 15z"/><path d="m436 352h-120c-8.284 0-15-6.716-15-15s6.716-15 15-15h120c8.284 0 15 6.716 15 15s-6.716 15-15 15z"/><path d="m436 412h-120c-8.284 0-15-6.716-15-15s6.716-15 15-15h120c8.284 0 15 6.716 15 15s-6.716 15-15 15z"/></g><g><path d="m212.162 347.709c11.637-11.752 18.838-27.903 18.838-45.709 0-8.493-1.662-16.735-4.876-24.448l15.785-6.765c5.515-2.364 9.091-7.787 9.091-13.787s-3.576-11.423-9.091-13.787l-70-30c-3.773-1.617-8.044-1.617-11.817 0l-70 30c-5.516 2.364-9.092 7.787-9.092 13.787s3.576 11.423 9.091 13.787l15.785 6.765c-3.214 7.713-4.876 15.955-4.876 24.448 0 17.806 7.201 33.957 18.838 45.709-34.816 17.114-58.838 52.948-58.838 94.291 0 8.284 6.716 15 15 15h180c8.284 0 15-6.716 15-15 0-41.343-24.022-77.177-58.838-94.291zm-46.162-104.39 31.921 13.681-31.921 13.681-31.921-13.681zm-35 58.681c0-4.815 1.016-9.031 2.474-12.62l26.617 11.407c1.887.809 3.897 1.213 5.909 1.213s4.022-.404 5.909-1.213l26.617-11.407c1.458 3.589 2.474 7.806 2.474 12.62 0 19.299-15.701 35-35 35s-35-15.701-35-35zm-38.493 125c6.969-34.191 37.274-60 73.493-60s66.524 25.809 73.493 60z"/><path d="m467 70h-108.58c-6.192-17.459-22.865-30-42.42-30h-7.079c-6.545-23.061-27.792-40-52.921-40s-46.376 16.939-52.921 40h-7.079c-19.555 0-36.228 12.541-42.42 30h-108.58c-24.813 0-45 20.187-45 45v352c0 24.813 20.187 45 45 45h422c24.813 0 45-20.187 45-45v-352c0-24.813-20.187-45-45-45zm-286 15c0-8.271 6.729-15 15-15h20c8.284 0 15-6.716 15-15 0-13.785 11.215-25 25-25s25 11.215 25 25c0 8.284 6.716 15 15 15h20c8.271 0 15 6.729 15 15v10h-150zm-136 15h106v10c0 8.284 6.716 15 15 15h180c8.284 0 15-6.716 15-15v-10h106c8.271 0 15 6.729 15 15v40h-452v-40c0-8.271 6.729-15 15-15zm422 382h-422c-8.271 0-15-6.729-15-15v-282h452v282c0 8.271-6.729 15-15 15z"/></g></g></svg>