<svg id="Capa_1" enable-background="new 0 0 511.999 511.999" height="512" viewBox="0 0 511.999 511.999" width="512" xmlns="http://www.w3.org/2000/svg"><path d="m477.728 255.923-37.402-62.272c-.3-.498-.642-.971-1.023-1.41-1.127-1.3-2.603-2.326-4.351-2.916l-126.229-42.625 38.691-51.409c2.28-3.029 2.651-7.086.958-10.478-1.692-3.392-5.157-5.535-8.948-5.535h-36.453v-69.278c0-5.523-4.477-10-10-10h-73.943c-5.523 0-10 4.477-10 10v69.278h-36.453c-3.791 0-7.255 2.144-8.948 5.535-1.693 3.392-1.322 7.449.958 10.478l38.691 51.409-126.23 42.625c-2.272.761-4.189 2.338-5.373 4.326l-37.403 62.272c-1.526 2.542-1.846 5.629-.874 8.43.973 2.801 3.138 5.025 5.912 6.073l30.937 11.69v160.536c0 4.29 2.736 8.102 6.801 9.475l175.754 59.348c2.058.699 4.341.699 6.398 0l175.754-59.347c4.065-1.372 6.801-5.185 6.801-9.475v-160.536l30.936-11.69c2.773-1.048 4.939-3.273 5.912-6.073.974-2.802.654-5.89-.873-8.431zm-258.7-156.645c5.523 0 10-4.477 10-10v-69.278h53.943v69.278c0 5.523 4.477 10 10 10h26.411l-63.383 84.217-63.383-84.217zm28.982 106.859c1.889 2.51 4.848 3.987 7.99 3.987s6.101-1.476 7.99-3.987l32.065-42.605 104.441 35.267-144.497 48.792-144.497-48.792 104.442-35.267zm-163.337 4.712 153.715 51.905-41.348 45.895-139.457-52.697zm5.572 78.825 106.117 40.099c1.151.435 2.348.646 3.533.646 2.78 0 5.498-1.161 7.432-3.307l38.673-42.926v203.882l-155.755-52.593zm331.509 145.801-155.754 52.594v-203.883l38.673 42.926c1.934 2.147 4.651 3.307 7.432 3.307 1.185 0 2.381-.211 3.533-.646l106.117-40.099v145.801zm-106.796-126.826-41.348-45.895 153.715-51.905 27.089 45.103z"/></svg>